<svg xmlns="http://www.w3.org/2000/svg" xmlns:xlink="http://www.w3.org/1999/xlink" version="1.1" class="marks" width="780" height="409" viewBox="0 0 780 409"><rect width="780" height="409" fill="white"/><g fill="none" stroke-miterlimit="10" transform="translate(92,76)"><g class="mark-group role-frame root" role="graphics-object" aria-roledescription="group mark container"><g transform="translate(0,0)"><path class="background" aria-hidden="true" d="M0,0h0v0h0Z"/><g><g class="mark-group role-row-header row_header" role="graphics-object" aria-roledescription="group mark container"><g transform="translate(-1,0)"><path class="background" aria-hidden="true" d="M0,0h0v300h0Z"/><g><g class="mark-group role-axis" role="graphics-symbol" aria-roledescription="axis" aria-label="Y-axis titled 'The proportion of pages' for a linear scale with values from 0% to 100%"><g transform="translate(0.5,0.5)"><path class="background" aria-hidden="true" d="M0,0h0v0h0Z" pointer-events="none"/><g><g class="mark-rule role-axis-tick" pointer-events="none"><line transform="translate(0,300)" x2="-5" y2="0" stroke="black" stroke-width="1" opacity="1"/><line transform="translate(0,240)" x2="-5" y2="0" stroke="black" stroke-width="1" opacity="1"/><line transform="translate(0,180)" x2="-5" y2="0" stroke="black" stroke-width="1" opacity="1"/><line transform="translate(0,120)" x2="-5" y2="0" stroke="black" stroke-width="1" opacity="1"/><line transform="translate(0,60)" x2="-5" y2="0" stroke="black" stroke-width="1" opacity="1"/><line transform="translate(0,0)" x2="-5" y2="0" stroke="black" stroke-width="1" opacity="1"/></g><g class="mark-text role-axis-label" pointer-events="none"><text text-anchor="end" transform="translate(-7,306)" font-family="sans-serif" font-size="20px" font-weight="400" fill="#000" opacity="1">0%</text><text text-anchor="end" transform="translate(-7,246)" font-family="sans-serif" font-size="20px" font-weight="400" fill="#000" opacity="1">20%</text><text text-anchor="end" transform="translate(-7,186)" font-family="sans-serif" font-size="20px" font-weight="400" fill="#000" opacity="1">40%</text><text text-anchor="end" transform="translate(-7,126)" font-family="sans-serif" font-size="20px" font-weight="400" fill="#000" opacity="1">60%</text><text text-anchor="end" transform="translate(-7,65.99999999999999)" font-family="sans-serif" font-size="20px" font-weight="400" fill="#000" opacity="1">80%</text><text text-anchor="end" transform="translate(-7,6)" font-family="sans-serif" font-size="20px" font-weight="400" fill="#000" opacity="1">100%</text></g><g class="mark-text role-axis-title" pointer-events="none"><text text-anchor="middle" transform="translate(-62.15234375,150) rotate(-90) translate(0,-5)" font-family="sans-serif" font-size="23px" font-weight="400" fill="#000" opacity="1">The proportion of pages</text></g></g><path class="foreground" aria-hidden="true" d="" pointer-events="none" display="none"/></g></g></g><path class="foreground" aria-hidden="true" d="" display="none"/></g></g><g class="mark-group role-column-header column_header" role="graphics-object" aria-roledescription="group mark container"><g transform="translate(0,-1)"><path class="background" aria-hidden="true" d="M0,0h340v0h-340Z"/><g><g class="mark-group role-title"><g transform="translate(170,-33)"><path class="background" aria-hidden="true" d="M0,0h0v0h0Z" pointer-events="none"/><g><g class="mark-text role-title-text" role="graphics-symbol" aria-roledescription="title" aria-label="Title text 'Data Portals'" pointer-events="none"><text text-anchor="middle" transform="translate(0,18)" font-family="sans-serif" font-size="23px" font-weight="400" fill="#000" opacity="1">Data Portals</text></g></g><path class="foreground" aria-hidden="true" d="" pointer-events="none" display="none"/></g></g></g><path class="foreground" aria-hidden="true" d="" display="none"/></g><g transform="translate(342,-1)"><path class="background" aria-hidden="true" d="M0,0h340v0h-340Z"/><g><g class="mark-group role-title"><g transform="translate(170,-33)"><path class="background" aria-hidden="true" d="M0,0h0v0h0Z" pointer-events="none"/><g><g class="mark-text role-title-text" role="graphics-symbol" aria-roledescription="title" aria-label="Title text 'Journal Websites'" pointer-events="none"><text text-anchor="middle" transform="translate(0,18)" font-family="sans-serif" font-size="23px" font-weight="400" fill="#000" opacity="1">Journal Websites</text></g></g><path class="foreground" aria-hidden="true" d="" pointer-events="none" display="none"/></g></g></g><path class="foreground" aria-hidden="true" d="" display="none"/></g></g><g class="mark-group role-column-footer column_footer" role="graphics-object" aria-roledescription="group mark container"><g transform="translate(0,301)"><path class="background" aria-hidden="true" d="M0,0h340v0h-340Z"/><g><g class="mark-group role-axis" role="graphics-symbol" aria-roledescription="axis" aria-label="X-axis for a discrete scale with 3 values: Severe, Moderate, Minor"><g transform="translate(0.5,0.5)"><path class="background" aria-hidden="true" d="M0,0h0v0h0Z" pointer-events="none"/><g><g class="mark-rule role-axis-tick" pointer-events="none"><line transform="translate(56,0)" x2="0" y2="5" stroke="black" stroke-width="1" opacity="1"/><line transform="translate(170,0)" x2="0" y2="5" stroke="black" stroke-width="1" opacity="1"/><line transform="translate(283,0)" x2="0" y2="5" stroke="black" stroke-width="1" opacity="1"/></g><g class="mark-text role-axis-label" pointer-events="none"><text text-anchor="middle" transform="translate(56.166666666666686,23)" font-family="sans-serif" font-size="20px" font-weight="400" fill="#000" opacity="1">Severe</text><text text-anchor="middle" transform="translate(169.5,23)" font-family="sans-serif" font-size="20px" font-weight="400" fill="#000" opacity="1">Moderate</text><text text-anchor="middle" transform="translate(282.83333333333337,23)" font-family="sans-serif" font-size="20px" font-weight="400" fill="#000" opacity="1">Minor</text></g><g class="mark-rule role-axis-domain" pointer-events="none"><line transform="translate(0,0)" x2="340" y2="0" stroke="black" stroke-width="1.5" opacity="1"/></g></g><path class="foreground" aria-hidden="true" d="" pointer-events="none" display="none"/></g></g></g><path class="foreground" aria-hidden="true" d="" display="none"/></g><g transform="translate(342,301)"><path class="background" aria-hidden="true" d="M0,0h340v0h-340Z"/><g><g class="mark-group role-axis" role="graphics-symbol" aria-roledescription="axis" aria-label="X-axis for a discrete scale with 3 values: Severe, Moderate, Minor"><g transform="translate(0.5,0.5)"><path class="background" aria-hidden="true" d="M0,0h0v0h0Z" pointer-events="none"/><g><g class="mark-rule role-axis-tick" pointer-events="none"><line transform="translate(56,0)" x2="0" y2="5" stroke="black" stroke-width="1" opacity="1"/><line transform="translate(170,0)" x2="0" y2="5" stroke="black" stroke-width="1" opacity="1"/><line transform="translate(283,0)" x2="0" y2="5" stroke="black" stroke-width="1" opacity="1"/></g><g class="mark-text role-axis-label" pointer-events="none"><text text-anchor="middle" transform="translate(56.166666666666686,23)" font-family="sans-serif" font-size="20px" font-weight="400" fill="#000" opacity="1">Severe</text><text text-anchor="middle" transform="translate(169.5,23)" font-family="sans-serif" font-size="20px" font-weight="400" fill="#000" opacity="1">Moderate</text><text text-anchor="middle" transform="translate(282.83333333333337,23)" font-family="sans-serif" font-size="20px" font-weight="400" fill="#000" opacity="1">Minor</text></g><g class="mark-rule role-axis-domain" pointer-events="none"><line transform="translate(0,0)" x2="340" y2="0" stroke="black" stroke-width="1.5" opacity="1"/></g></g><path class="foreground" aria-hidden="true" d="" pointer-events="none" display="none"/></g></g></g><path class="foreground" aria-hidden="true" d="" display="none"/></g></g><g class="mark-group role-scope cell" role="graphics-object" aria-roledescription="group mark container"><g transform="translate(0,0)"><path class="background" aria-hidden="true" d="M0.5,0.5h340v300h-340Z" fill="#FCFCFC" stroke="#ddd"/><g><g class="mark-group role-axis" aria-hidden="true"><g transform="translate(0.5,0.5)"><path class="background" aria-hidden="true" d="M0,0h0v0h0Z" pointer-events="none"/><g><g class="mark-rule role-axis-grid" pointer-events="none"><line transform="translate(0,300)" x2="340" y2="0" stroke="#ddd" stroke-width="1" opacity="1"/><line transform="translate(0,240)" x2="340" y2="0" stroke="#ddd" stroke-width="1" opacity="1"/><line transform="translate(0,180)" x2="340" y2="0" stroke="#ddd" stroke-width="1" opacity="1"/><line transform="translate(0,120)" x2="340" y2="0" stroke="#ddd" stroke-width="1" opacity="1"/><line transform="translate(0,60)" x2="340" y2="0" stroke="#ddd" stroke-width="1" opacity="1"/><line transform="translate(0,0)" x2="340" y2="0" stroke="#ddd" stroke-width="1" opacity="1"/></g></g><path class="foreground" aria-hidden="true" d="" pointer-events="none" display="none"/></g></g><g class="mark-group role-scope" role="graphics-object" aria-roledescription="group mark container"><g transform="translate(16.666666666666686,75.48200514138817)"><path class="background" aria-hidden="true" d="M3,0L77,0C78.655745073482,0,80,1.344254926518,80,3L80,224.51799485861181C80,224.51799485861181,80,224.51799485861181,80,224.51799485861181L0,224.51799485861181C0,224.51799485861181,0,224.51799485861181,0,224.51799485861181L0,3C0,1.344254926518,1.344254926518,0,3,0Z"/><g clip-path="url(#clip13)"><g class="mark-group role-scope" role="graphics-object" aria-roledescription="group mark container"><g transform="translate(0,-75.48200514138817)"><path class="background" aria-hidden="true" d="M0,0h80v0h-80Z"/><g><g class="mark-rect role-mark child_layer_0_marks" role="graphics-object" aria-roledescription="rect mark container"><path aria-label="issue_overall_impact: Severe; The proportion of pages: 74.839332%; resource_category: Data Portals" role="graphics-symbol" aria-roledescription="bar" d="M0,75.48200514138817h80v224.51799485861181h-80Z" fill="#56B4E9"/></g></g><path class="foreground" aria-hidden="true" d="" display="none"/></g></g></g><path class="foreground" aria-hidden="true" d="" display="none"/></g><g transform="translate(243.33333333333337,120.69408740359899)"><path class="background" aria-hidden="true" d="M3,0L77,0C78.655745073482,0,80,1.344254926518,80,3L80,179.30591259640101C80,179.30591259640101,80,179.30591259640101,80,179.30591259640101L0,179.30591259640101C0,179.30591259640101,0,179.30591259640101,0,179.30591259640101L0,3C0,1.344254926518,1.344254926518,0,3,0Z"/><g clip-path="url(#clip14)"><g class="mark-group role-scope" role="graphics-object" aria-roledescription="group mark container"><g transform="translate(0,-120.69408740359899)"><path class="background" aria-hidden="true" d="M0,0h80v0h-80Z"/><g><g class="mark-rect role-mark child_layer_0_marks" role="graphics-object" aria-roledescription="rect mark container"><path aria-label="issue_overall_impact: Minor; The proportion of pages: 59.768638%; resource_category: Data Portals" role="graphics-symbol" aria-roledescription="bar" d="M0,120.69408740359899h80v179.30591259640101h-80Z" fill="#56B4E9"/></g></g><path class="foreground" aria-hidden="true" d="" display="none"/></g></g></g><path class="foreground" aria-hidden="true" d="" display="none"/></g><g transform="translate(130,4.916452442159369)"><path class="background" aria-hidden="true" d="M3,0L77,0C78.655745073482,0,80,1.344254926518,80,3L80,295.08354755784063C80,295.08354755784063,80,295.08354755784063,80,295.08354755784063L0,295.08354755784063C0,295.08354755784063,0,295.08354755784063,0,295.08354755784063L0,3C0,1.344254926518,1.344254926518,0,3,0Z"/><g clip-path="url(#clip15)"><g class="mark-group role-scope" role="graphics-object" aria-roledescription="group mark container"><g transform="translate(0,-4.916452442159369)"><path class="background" aria-hidden="true" d="M0,0h80v0h-80Z"/><g><g class="mark-rect role-mark child_layer_0_marks" role="graphics-object" aria-roledescription="rect mark container"><path aria-label="issue_overall_impact: Moderate; The proportion of pages: 98.361183%; resource_category: Data Portals" role="graphics-symbol" aria-roledescription="bar" d="M0,4.916452442159369h80v295.08354755784063h-80Z" fill="#56B4E9"/></g></g><path class="foreground" aria-hidden="true" d="" display="none"/></g></g></g><path class="foreground" aria-hidden="true" d="" display="none"/></g></g><g class="mark-text role-mark child_layer_1_marks" role="graphics-object" aria-roledescription="text mark container"><text aria-label="issue_overall_impact: Severe; The proportion of pages: 74.839332%; proportion: 74.8%" role="graphics-symbol" aria-roledescription="text mark" text-anchor="middle" transform="translate(56.666666666666686,102.48200514138817)" font-family="sans-serif" font-size="24px" fill="white">74.8%</text><text aria-label="issue_overall_impact: Minor; The proportion of pages: 59.768638%; proportion: 59.8%" role="graphics-symbol" aria-roledescription="text mark" text-anchor="middle" transform="translate(283.33333333333337,147.69408740359899)" font-family="sans-serif" font-size="24px" fill="white">59.8%</text><text aria-label="issue_overall_impact: Moderate; The proportion of pages: 98.361183%; proportion: 98.4%" role="graphics-symbol" aria-roledescription="text mark" text-anchor="middle" transform="translate(170,31.91645244215937)" font-family="sans-serif" font-size="24px" fill="white">98.4%</text></g></g><path class="foreground" aria-hidden="true" d="" display="none"/></g><g transform="translate(342,0)"><path class="background" aria-hidden="true" d="M0.5,0.5h340v300h-340Z" fill="#FCFCFC" stroke="#ddd"/><g><g class="mark-group role-axis" aria-hidden="true"><g transform="translate(0.5,0.5)"><path class="background" aria-hidden="true" d="M0,0h0v0h0Z" pointer-events="none"/><g><g class="mark-rule role-axis-grid" pointer-events="none"><line transform="translate(0,300)" x2="340" y2="0" stroke="#ddd" stroke-width="1" opacity="1"/><line transform="translate(0,240)" x2="340" y2="0" stroke="#ddd" stroke-width="1" opacity="1"/><line transform="translate(0,180)" x2="340" y2="0" stroke="#ddd" stroke-width="1" opacity="1"/><line transform="translate(0,120)" x2="340" y2="0" stroke="#ddd" stroke-width="1" opacity="1"/><line transform="translate(0,60)" x2="340" y2="0" stroke="#ddd" stroke-width="1" opacity="1"/><line transform="translate(0,0)" x2="340" y2="0" stroke="#ddd" stroke-width="1" opacity="1"/></g></g><path class="foreground" aria-hidden="true" d="" pointer-events="none" display="none"/></g></g><g class="mark-group role-scope" role="graphics-object" aria-roledescription="group mark container"><g transform="translate(16.666666666666686,92.84173367326927)"><path class="background" aria-hidden="true" d="M3,0L77,0C78.655745073482,0,80,1.344254926518,80,3L80,207.1582663267307C80,207.1582663267307,80,207.1582663267307,80,207.1582663267307L0,207.1582663267307C0,207.1582663267307,0,207.1582663267307,0,207.1582663267307L0,3C0,1.344254926518,1.344254926518,0,3,0Z"/><g clip-path="url(#clip16)"><g class="mark-group role-scope" role="graphics-object" aria-roledescription="group mark container"><g transform="translate(0,-92.84173367326927)"><path class="background" aria-hidden="true" d="M0,0h80v0h-80Z"/><g><g class="mark-rect role-mark child_layer_0_marks" role="graphics-object" aria-roledescription="rect mark container"><path aria-label="issue_overall_impact: Severe; The proportion of pages: 69.052755%; resource_category: Journal Websites" role="graphics-symbol" aria-roledescription="bar" d="M0,92.84173367326927h80v207.1582663267307h-80Z" fill="#CC79A7"/></g></g><path class="foreground" aria-hidden="true" d="" display="none"/></g></g></g><path class="foreground" aria-hidden="true" d="" display="none"/></g><g transform="translate(243.33333333333337,143.02804471464995)"><path class="background" aria-hidden="true" d="M3,0L77,0C78.655745073482,0,80,1.344254926518,80,3L80,156.97195528535005C80,156.97195528535005,80,156.97195528535005,80,156.97195528535005L0,156.97195528535005C0,156.97195528535005,0,156.97195528535005,0,156.97195528535005L0,3C0,1.344254926518,1.344254926518,0,3,0Z"/><g clip-path="url(#clip17)"><g class="mark-group role-scope" role="graphics-object" aria-roledescription="group mark container"><g transform="translate(0,-143.02804471464995)"><path class="background" aria-hidden="true" d="M0,0h80v0h-80Z"/><g><g class="mark-rect role-mark child_layer_0_marks" role="graphics-object" aria-roledescription="rect mark container"><path aria-label="issue_overall_impact: Minor; The proportion of pages: 52.323985%; resource_category: Journal Websites" role="graphics-symbol" aria-roledescription="bar" d="M0,143.02804471464995h80v156.97195528535005h-80Z" fill="#CC79A7"/></g></g><path class="foreground" aria-hidden="true" d="" display="none"/></g></g></g><path class="foreground" aria-hidden="true" d="" display="none"/></g><g transform="translate(130,3.5889390076485617)"><path class="background" aria-hidden="true" d="M3,0L77,0C78.655745073482,0,80,1.344254926518,80,3L80,296.41106099235145C80,296.41106099235145,80,296.41106099235145,80,296.41106099235145L0,296.41106099235145C0,296.41106099235145,0,296.41106099235145,0,296.41106099235145L0,3C0,1.344254926518,1.344254926518,0,3,0Z"/><g clip-path="url(#clip18)"><g class="mark-group role-scope" role="graphics-object" aria-roledescription="group mark container"><g transform="translate(0,-3.5889390076485617)"><path class="background" aria-hidden="true" d="M0,0h80v0h-80Z"/><g><g class="mark-rect role-mark child_layer_0_marks" role="graphics-object" aria-roledescription="rect mark container"><path aria-label="issue_overall_impact: Moderate; The proportion of pages: 98.803687%; resource_category: Journal Websites" role="graphics-symbol" aria-roledescription="bar" d="M0,3.5889390076485617h80v296.41106099235145h-80Z" fill="#CC79A7"/></g></g><path class="foreground" aria-hidden="true" d="" display="none"/></g></g></g><path class="foreground" aria-hidden="true" d="" display="none"/></g></g><g class="mark-text role-mark child_layer_1_marks" role="graphics-object" aria-roledescription="text mark container"><text aria-label="issue_overall_impact: Severe; The proportion of pages: 69.052755%; proportion: 69.1%" role="graphics-symbol" aria-roledescription="text mark" text-anchor="middle" transform="translate(56.666666666666686,119.84173367326927)" font-family="sans-serif" font-size="24px" fill="white">69.1%</text><text aria-label="issue_overall_impact: Minor; The proportion of pages: 52.323985%; proportion: 52.3%" role="graphics-symbol" aria-roledescription="text mark" text-anchor="middle" transform="translate(283.33333333333337,170.02804471464995)" font-family="sans-serif" font-size="24px" fill="white">52.3%</text><text aria-label="issue_overall_impact: Moderate; The proportion of pages: 98.803687%; proportion: 98.8%" role="graphics-symbol" aria-roledescription="text mark" text-anchor="middle" transform="translate(170,30.588939007648563)" font-family="sans-serif" font-size="24px" fill="white">98.8%</text></g></g><path class="foreground" aria-hidden="true" d="" display="none"/></g></g><g class="mark-group role-title"><g transform="translate(298.423828125,-60)"><path class="background" aria-hidden="true" d="M0,0h0v0h0Z" pointer-events="none"/><g><g class="mark-text role-title-text" role="graphics-symbol" aria-roledescription="title" aria-label="Title text 'The Proportion of Pages with Overall Impact of Issues'" pointer-events="none"><text text-anchor="middle" transform="translate(0,7)" font-family="sans-serif" font-size="22px" font-weight="400" fill="#000" opacity="1">The Proportion of Pages with Overall Impact of Issues</text></g></g><path class="foreground" aria-hidden="true" d="" pointer-events="none" display="none"/></g></g></g><path class="foreground" aria-hidden="true" d="" display="none"/></g></g></g><defs><clipPath id="clip13"><path d="M3,0L77,0C78.655745073482,0,80,1.344254926518,80,3L80,224.51799485861181C80,224.51799485861181,80,224.51799485861181,80,224.51799485861181L0,224.51799485861181C0,224.51799485861181,0,224.51799485861181,0,224.51799485861181L0,3C0,1.344254926518,1.344254926518,0,3,0Z"/></clipPath><clipPath id="clip14"><path d="M3,0L77,0C78.655745073482,0,80,1.344254926518,80,3L80,179.30591259640101C80,179.30591259640101,80,179.30591259640101,80,179.30591259640101L0,179.30591259640101C0,179.30591259640101,0,179.30591259640101,0,179.30591259640101L0,3C0,1.344254926518,1.344254926518,0,3,0Z"/></clipPath><clipPath id="clip15"><path d="M3,0L77,0C78.655745073482,0,80,1.344254926518,80,3L80,295.08354755784063C80,295.08354755784063,80,295.08354755784063,80,295.08354755784063L0,295.08354755784063C0,295.08354755784063,0,295.08354755784063,0,295.08354755784063L0,3C0,1.344254926518,1.344254926518,0,3,0Z"/></clipPath><clipPath id="clip16"><path d="M3,0L77,0C78.655745073482,0,80,1.344254926518,80,3L80,207.1582663267307C80,207.1582663267307,80,207.1582663267307,80,207.1582663267307L0,207.1582663267307C0,207.1582663267307,0,207.1582663267307,0,207.1582663267307L0,3C0,1.344254926518,1.344254926518,0,3,0Z"/></clipPath><clipPath id="clip17"><path d="M3,0L77,0C78.655745073482,0,80,1.344254926518,80,3L80,156.97195528535005C80,156.97195528535005,80,156.97195528535005,80,156.97195528535005L0,156.97195528535005C0,156.97195528535005,0,156.97195528535005,0,156.97195528535005L0,3C0,1.344254926518,1.344254926518,0,3,0Z"/></clipPath><clipPath id="clip18"><path d="M3,0L77,0C78.655745073482,0,80,1.344254926518,80,3L80,296.41106099235145C80,296.41106099235145,80,296.41106099235145,80,296.41106099235145L0,296.41106099235145C0,296.41106099235145,0,296.41106099235145,0,296.41106099235145L0,3C0,1.344254926518,1.344254926518,0,3,0Z"/></clipPath></defs></svg>