<svg xmlns="http://www.w3.org/2000/svg" xmlns:xlink="http://www.w3.org/1999/xlink" version="1.1" class="marks" width="549" height="264" viewBox="0 0 549 264"><rect width="549" height="264" fill="white"/><g fill="none" stroke-miterlimit="10" transform="translate(243,5)"><g class="mark-group role-frame root" role="graphics-object" aria-roledescription="group mark container"><g transform="translate(0,0)"><path class="background" aria-hidden="true" d="M0.5,0.5h300v200h-300Z" fill="#FCFCFC" stroke="#ddd"/><g><g class="mark-group role-axis" aria-hidden="true"><g transform="translate(0.5,200.5)"><path class="background" aria-hidden="true" d="M0,0h0v0h0Z" pointer-events="none"/><g><g class="mark-rule role-axis-grid" pointer-events="none"><line transform="translate(0,0)" x2="0" y2="-200" stroke="#ddd" stroke-width="1" opacity="1"/><line transform="translate(60,0)" x2="0" y2="-200" stroke="#ddd" stroke-width="1" opacity="1"/><line transform="translate(120,0)" x2="0" y2="-200" stroke="#ddd" stroke-width="1" opacity="1"/><line transform="translate(180,0)" x2="0" y2="-200" stroke="#ddd" stroke-width="1" opacity="1"/><line transform="translate(240,0)" x2="0" y2="-200" stroke="#ddd" stroke-width="1" opacity="1"/><line transform="translate(300,0)" x2="0" y2="-200" stroke="#ddd" stroke-width="1" opacity="1"/></g></g><path class="foreground" aria-hidden="true" d="" pointer-events="none" display="none"/></g></g><g class="mark-group role-axis" role="graphics-symbol" aria-roledescription="axis" aria-label="X-axis titled 'Estimated failure rate' for a linear scale with values from 0% to 10%"><g transform="translate(0.5,200.5)"><path class="background" aria-hidden="true" d="M0,0h0v0h0Z" pointer-events="none"/><g><g class="mark-rule role-axis-tick" pointer-events="none"><line transform="translate(0,0)" x2="0" y2="5" stroke="black" stroke-width="1" opacity="1"/><line transform="translate(60,0)" x2="0" y2="5" stroke="black" stroke-width="1" opacity="1"/><line transform="translate(120,0)" x2="0" y2="5" stroke="black" stroke-width="1" opacity="1"/><line transform="translate(180,0)" x2="0" y2="5" stroke="black" stroke-width="1" opacity="1"/><line transform="translate(240,0)" x2="0" y2="5" stroke="black" stroke-width="1" opacity="1"/><line transform="translate(300,0)" x2="0" y2="5" stroke="black" stroke-width="1" opacity="1"/></g><g class="mark-text role-axis-label" pointer-events="none"><text text-anchor="start" transform="translate(0,23)" font-family="sans-serif" font-size="20px" font-weight="400" fill="#000" opacity="1">0%</text><text text-anchor="middle" transform="translate(59.99999999999999,23)" font-family="sans-serif" font-size="20px" font-weight="400" fill="#000" opacity="1">2%</text><text text-anchor="middle" transform="translate(119.99999999999999,23)" font-family="sans-serif" font-size="20px" font-weight="400" fill="#000" opacity="1">4%</text><text text-anchor="middle" transform="translate(180,23)" font-family="sans-serif" font-size="20px" font-weight="400" fill="#000" opacity="1">6%</text><text text-anchor="middle" transform="translate(239.99999999999997,23)" font-family="sans-serif" font-size="20px" font-weight="400" fill="#000" opacity="1">8%</text><text text-anchor="end" transform="translate(300,23)" font-family="sans-serif" font-size="20px" font-weight="400" fill="#000" opacity="1">10%</text></g><g class="mark-rule role-axis-domain" pointer-events="none"><line transform="translate(0,0)" x2="300" y2="0" stroke="black" stroke-width="1.5" opacity="1"/></g><g class="mark-text role-axis-title" pointer-events="none"><text text-anchor="middle" transform="translate(150,49)" font-family="sans-serif" font-size="23px" font-weight="400" fill="#000" opacity="1">Estimated failure rate</text></g></g><path class="foreground" aria-hidden="true" d="" pointer-events="none" display="none"/></g></g><g class="mark-group role-axis" role="graphics-symbol" aria-roledescription="axis" aria-label="Y-axis for a discrete scale with 3 values: US Government Websites, Journal Websites, Data Portals"><g transform="translate(0.5,0.5)"><path class="background" aria-hidden="true" d="M0,0h0v0h0Z" pointer-events="none"/><g><g class="mark-rule role-axis-tick" pointer-events="none"><line transform="translate(0,33)" x2="-5" y2="0" stroke="black" stroke-width="1" opacity="1"/><line transform="translate(0,100)" x2="-5" y2="0" stroke="black" stroke-width="1" opacity="1"/><line transform="translate(0,166)" x2="-5" y2="0" stroke="black" stroke-width="1" opacity="1"/></g><g class="mark-text role-axis-label" pointer-events="none"><text text-anchor="end" transform="translate(-7,38.833333333333336)" font-family="sans-serif" font-size="20px" font-weight="400" fill="#000" opacity="1">US Government Websites</text><text text-anchor="end" transform="translate(-7,105.5)" font-family="sans-serif" font-size="20px" font-weight="400" fill="#000" opacity="1">Journal Websites</text><text text-anchor="end" transform="translate(-7,172.16666666666669)" font-family="sans-serif" font-size="20px" font-weight="400" fill="#000" opacity="1">Data Portals</text></g></g><path class="foreground" aria-hidden="true" d="" pointer-events="none" display="none"/></g></g><g class="mark-symbol role-mark layer_0_marks" role="graphics-object" aria-roledescription="symbol mark container"><path aria-label="Estimated failure rate: 3%; web_type: Journal Websites; Resource Category: Journal Websites; Estimated Failure Rate: 0.0289" role="graphics-symbol" aria-roledescription="circle" transform="translate(86.6243708068662,100)" d="M5,0A5,5,0,1,1,-5,0A5,5,0,1,1,5,0" fill="#CC79A7" stroke-width="2" opacity="1"/><path aria-label="Estimated failure rate: 1%; web_type: US Government Websites; Resource Category: US Government Websites; Estimated Failure Rate: 0.0146" role="graphics-symbol" aria-roledescription="circle" transform="translate(43.807002370955104,33.333333333333336)" d="M5,0A5,5,0,1,1,-5,0A5,5,0,1,1,5,0" fill="#009E73" stroke-width="2" opacity="1"/><path aria-label="Estimated failure rate: 6%; web_type: Data Portals; Resource Category: Data Portals; Estimated Failure Rate: 0.0627" role="graphics-symbol" aria-roledescription="circle" transform="translate(188.09091545368648,166.66666666666669)" d="M5,0A5,5,0,1,1,-5,0A5,5,0,1,1,5,0" fill="#56B4E9" stroke-width="2" opacity="1"/></g><g class="mark-rule role-mark layer_1_marks" role="graphics-object" aria-roledescription="rule mark container"><line aria-label="Estimated failure rate: 0.0281334881177; web_type: Journal Websites; upper_ci_95L: 0.0296350297147; Resource Category: Journal Websites; Estimated Failure Rate: 0.0289" role="graphics-symbol" aria-roledescription="errorbar" transform="translate(84.400464353235,100)" x2="4.504624790725501" y2="0" stroke="black" stroke-width="2"/><line aria-label="Estimated failure rate: 0.0135870587538; web_type: US Government Websites; upper_ci_95L: 0.0156922677365; Resource Category: US Government Websites; Estimated Failure Rate: 0.0146" role="graphics-symbol" aria-roledescription="errorbar" transform="translate(40.76117626136549,33.333333333333336)" x2="6.31562694825061" y2="0" stroke="black" stroke-width="2"/><line aria-label="Estimated failure rate: 0.0608123304668; web_type: Data Portals; upper_ci_95L: 0.0646360006414; Resource Category: Data Portals; Estimated Failure Rate: 0.0627" role="graphics-symbol" aria-roledescription="errorbar" transform="translate(182.4369914002902,166.66666666666669)" x2="11.47101052381285" y2="0" stroke="black" stroke-width="2"/></g><g class="mark-symbol role-mark layer_2_marks" role="graphics-object" aria-roledescription="symbol mark container"><path aria-label="Estimated failure rate: 3%; web_type: Journal Websites; Resource Category: Journal Websites; Estimated Failure Rate: 0.0289" role="graphics-symbol" aria-roledescription="circle" transform="translate(86.6243708068662,100)" d="M5,0A5,5,0,1,1,-5,0A5,5,0,1,1,5,0" fill="#CC79A7" stroke-width="2" opacity="1"/><path aria-label="Estimated failure rate: 1%; web_type: US Government Websites; Resource Category: US Government Websites; Estimated Failure Rate: 0.0146" role="graphics-symbol" aria-roledescription="circle" transform="translate(43.807002370955104,33.333333333333336)" d="M5,0A5,5,0,1,1,-5,0A5,5,0,1,1,5,0" fill="#009E73" stroke-width="2" opacity="1"/><path aria-label="Estimated failure rate: 6%; web_type: Data Portals; Resource Category: Data Portals; Estimated Failure Rate: 0.0627" role="graphics-symbol" aria-roledescription="circle" transform="translate(188.09091545368648,166.66666666666669)" d="M5,0A5,5,0,1,1,-5,0A5,5,0,1,1,5,0" fill="#56B4E9" stroke-width="2" opacity="1"/></g></g><path class="foreground" aria-hidden="true" d="" display="none"/></g></g></g></svg>